<svg width="18" height="18" viewBox="0 0 18 18" fill="none" xmlns="http://www.w3.org/2000/svg">
<path fill-rule="evenodd" clip-rule="evenodd" d="M4.46953 1.30164C5.41983 0.9375 6.61322 0.9375 9 0.9375C11.3868 0.9375 12.5802 0.9375 13.5305 1.30164C14.9881 1.86019 16.1398 3.01185 16.6984 4.46953C17.0625 5.41983 17.0625 6.61322 17.0625 9C17.0625 11.3868 17.0625 12.5802 16.6984 13.5305C16.1398 14.9881 14.9881 16.1398 13.5305 16.6984C12.8039 16.9768 11.9353 17.0423 10.5 17.0577V11.25H12.75C13.1642 11.25 13.5 10.9142 13.5 10.5C13.5 10.0858 13.1642 9.75 12.75 9.75H10.5V9C10.5 8.5238 10.5004 8.20421 10.5173 7.95674C10.5337 7.71601 10.5632 7.5988 10.5951 7.52165C10.722 7.21536 10.9654 6.97202 11.2716 6.84515C11.3488 6.81319 11.466 6.78372 11.7067 6.76729C11.9542 6.75041 12.2738 6.75 12.75 6.75V5.25L12.7247 5.25C12.2803 5.24999 11.9092 5.24999 11.6046 5.27077C11.2875 5.29241 10.988 5.33905 10.6976 5.45933C10.0238 5.73844 9.48844 6.27379 9.20933 6.94762C9.08905 7.23801 9.04241 7.53754 9.02077 7.85464C8.99999 8.15925 8.99999 8.53029 9 8.97475V9V9.75H7.5C7.08579 9.75 6.75 10.0858 6.75 10.5C6.75 10.9142 7.08579 11.25 7.5 11.25H9V17.0625C6.61322 17.0625 5.41983 17.0625 4.46953 16.6984C3.01185 16.1398 1.86019 14.9881 1.30164 13.5305C0.9375 12.5802 0.9375 11.3868 0.9375 9C0.9375 6.61322 0.9375 5.41983 1.30164 4.46953C1.86019 3.01185 3.01185 1.86019 4.46953 1.30164Z" fill="#677488"/>
</svg>
