<svg width="18" height="18" viewBox="0 0 18 18" fill="none" xmlns="http://www.w3.org/2000/svg">
<path fill-rule="evenodd" clip-rule="evenodd" d="M9 0.9375C6.61322 0.9375 5.41983 0.9375 4.46953 1.30164C3.01185 1.86019 1.86019 3.01185 1.30164 4.46953C0.9375 5.41983 0.9375 6.61322 0.9375 9V9C0.9375 11.3868 0.9375 12.5802 1.30164 13.5305C1.86019 14.9881 3.01185 16.1398 4.46953 16.6984C5.41983 17.0625 6.61322 17.0625 9 17.0625V17.0625C11.3868 17.0625 12.5802 17.0625 13.5305 16.6984C14.9881 16.1398 16.1398 14.9881 16.6984 13.5305C17.0625 12.5802 17.0625 11.3868 17.0625 9V9C17.0625 6.61322 17.0625 5.41983 16.6984 4.46953C16.1398 3.01185 14.9881 1.86019 13.5305 1.30164C12.5802 0.9375 11.3868 0.9375 9 0.9375V0.9375ZM5.4375 9C5.4375 7.03249 7.03249 5.4375 9 5.4375C10.9675 5.4375 12.5625 7.03249 12.5625 9C12.5625 10.9675 10.9675 12.5625 9 12.5625C7.03249 12.5625 5.4375 10.9675 5.4375 9ZM13.875 5.25C14.4963 5.25 15 4.74632 15 4.125C15 3.50368 14.4963 3 13.875 3C13.2537 3 12.75 3.50368 12.75 4.125C12.75 4.74632 13.2537 5.25 13.875 5.25Z" fill="#677488"/>
</svg>
