<svg width="18" height="16" viewBox="0 0 18 16" fill="none" xmlns="http://www.w3.org/2000/svg">
<path d="M12.5025 0.6875C10.2771 0.6875 8.4541 2.45751 8.4541 4.66566C8.4541 4.71753 8.45521 4.76936 8.45743 4.82113C6.00703 4.50656 3.83233 3.27468 2.34217 1.50568C2.22571 1.36743 2.04991 1.29357 1.86965 1.30717C1.6894 1.32077 1.52666 1.42017 1.43226 1.57433C0.695524 2.77747 0.732488 4.25673 1.36525 5.43901C1.08 5.46379 0.85148 5.71103 0.85148 5.9994C0.85148 7.19119 1.38837 8.29053 2.2579 9.03697C2.10305 9.18199 2.04119 9.41195 2.10598 9.61703C2.46187 10.7437 3.31389 11.6351 4.39999 12.0786C3.29445 12.6037 2.05124 12.8138 0.818381 12.6628C0.557677 12.6308 0.309579 12.7836 0.220689 13.0307C0.131799 13.2779 0.225783 13.5536 0.447105 13.6951C2.06587 14.7295 3.99715 15.3125 6.09507 15.3125C12.8652 15.3125 16.5808 9.83361 16.5808 5.05602V4.69273L16.5952 4.67934C16.7389 4.54476 16.9228 4.34471 17.104 4.06932C17.4698 3.51351 17.8125 2.66948 17.8125 1.47771C17.8125 1.27596 17.7044 1.08965 17.5293 0.989467C17.3542 0.889279 17.1388 0.890552 16.9649 0.992804C16.4367 1.30334 15.8361 1.54845 15.2257 1.70633C14.4856 1.05482 13.5376 0.6875 12.5025 0.6875Z" fill="#677488"/>
</svg>
