<svg width="18" height="18" viewBox="0 0 18 18" fill="none" xmlns="http://www.w3.org/2000/svg">
<path fill-rule="evenodd" clip-rule="evenodd" d="M4.8911 1.90558C5.95895 1.73374 7.31089 1.6875 9 1.6875C10.6891 1.6875 12.041 1.73374 13.1089 1.90558C14.1776 2.07755 15.0283 2.38484 15.6596 2.95879C16.298 3.53916 16.6411 4.32679 16.8297 5.30785C17.0166 6.2796 17.0625 7.49912 17.0625 9.00002C17.0625 10.5009 17.0166 11.7204 16.8297 12.6922C16.6411 13.6732 16.298 14.4609 15.6596 15.0412C15.0283 15.6152 14.1776 15.9225 13.1089 16.0944C12.041 16.2663 10.6891 16.3125 9 16.3125C7.31089 16.3125 5.95895 16.2663 4.8911 16.0944C3.82243 15.9225 2.97171 15.6152 2.34037 15.0412C1.70197 14.4609 1.35894 13.6732 1.17028 12.6922C0.983402 11.7204 0.9375 10.5009 0.9375 9.00002C0.9375 7.49912 0.983402 6.2796 1.17028 5.30785C1.35894 4.32679 1.70197 3.53916 2.34037 2.95879C2.97171 2.38484 3.82243 2.07755 4.8911 1.90558ZM7.22286 6.26051C7.39921 6.16067 7.61563 6.1634 7.7894 6.26766L11.5394 8.51766C11.7088 8.61932 11.8125 8.80241 11.8125 9C11.8125 9.19759 11.7088 9.38068 11.5394 9.48234L7.7894 11.7323C7.61563 11.8366 7.39921 11.8393 7.22286 11.7395C7.04651 11.6396 6.9375 11.4527 6.9375 11.25V6.75C6.9375 6.54735 7.04651 6.36036 7.22286 6.26051Z" fill="#677488"/>
</svg>
