<svg width="32" height="32" viewBox="0 0 32 32" fill="none" xmlns="http://www.w3.org/2000/svg">
<path d="M12 16L14.6667 18.6666L20.6667 12.6666" stroke="#0A7AF9" stroke-width="2.5" stroke-linecap="round" stroke-linejoin="round"/>
<path d="M4 9.78607C4 8.65696 4 8.09241 4.17756 7.59953C4.33451 7.16385 4.59019 6.77043 4.92457 6.45006C5.30286 6.08763 5.81875 5.85834 6.85055 5.39977L13.4007 2.4886C14.3579 2.06319 14.8365 1.85048 15.334 1.76648C15.7749 1.69202 16.2251 1.69202 16.666 1.76648C17.1635 1.85048 17.6421 2.06319 18.5993 2.4886L25.1495 5.39977C26.1812 5.85834 26.6971 6.08762 27.0754 6.45006C27.4098 6.77042 27.6655 7.16385 27.8224 7.59952C28 8.0924 28 8.65696 28 9.78607L28 19.2415C28 20.4938 28 21.1199 27.8274 21.6883C27.6746 22.1914 27.4241 22.6595 27.0902 23.0658C26.713 23.5247 26.192 23.872 25.1501 24.5666L18.6626 28.8916C17.7003 29.5331 17.2192 29.8539 16.6991 29.9785C16.2395 30.0887 15.7605 30.0887 15.3009 29.9785C14.7809 29.8539 14.2997 29.5331 13.3374 28.8916L6.84992 24.5666C5.80796 23.872 5.28698 23.5247 4.90982 23.0658C4.57593 22.6595 4.32541 22.1914 4.17261 21.6883C4 21.1199 4 20.4938 4 19.2415L4 9.78607Z" stroke="#092857" stroke-width="2.5" stroke-linecap="round" stroke-linejoin="round"/>
</svg>
