<svg width="29" height="29" viewBox="0 0 29 29" fill="none" xmlns="http://www.w3.org/2000/svg">
<path d="M15.1042 19.3333C15.1042 19.667 14.8337 19.9375 14.5 19.9375C14.1663 19.9375 13.8958 19.667 13.8958 19.3333M15.1042 19.3333C15.1042 18.9996 14.8337 18.7291 14.5 18.7291C14.1663 18.7291 13.8958 18.9996 13.8958 19.3333M15.1042 19.3333H13.8958M12.0833 12.6875V12.0833C12.0833 10.7486 13.1653 9.66663 14.5 9.66663C15.8347 9.66663 16.9167 10.7486 16.9167 12.0833V12.2299C16.9167 12.9097 16.6466 13.5617 16.1659 14.0424L14.5 15.7083" stroke="#0A7AF9" stroke-width="2.5" stroke-linecap="round" stroke-linejoin="round"/>
<path d="M14.5 26.5833C21.1734 26.5833 26.5833 21.1734 26.5833 14.5C26.5833 7.82652 21.1734 2.41663 14.5 2.41663C7.82656 2.41663 2.41666 7.82652 2.41666 14.5C2.41666 16.3113 2.81559 18.0295 3.53002 19.5717C4.09419 20.7895 4.62818 21.8278 4.23466 23.1972C4.04536 23.8559 3.57097 24.5047 3.51463 25.1906C3.4502 25.9751 4.14106 26.6108 4.91749 26.4815C6.4983 26.2181 7.25919 24.961 9.09333 25.3924C9.29212 25.4391 9.81021 25.6244 10.8463 25.9951C11.9426 26.3872 13.1233 26.5833 14.5 26.5833Z" stroke="#092857" stroke-width="2.5" stroke-linecap="round" stroke-linejoin="round"/>
</svg>
