<svg width="20" height="20" viewBox="0 0 20 20" fill="none" xmlns="http://www.w3.org/2000/svg">
<path fill-rule="evenodd" clip-rule="evenodd" d="M15.5587 1.49425C16.0707 1.46199 16.5259 1.48782 16.9547 1.65267C17.6302 1.91235 18.1946 2.39842 18.5516 3.02792C18.7782 3.42752 18.8713 3.87387 18.9153 4.38493C18.9583 4.88378 18.9583 5.50651 18.9583 6.28242V6.28248V9.24993H9.49999V2.3596L13.6758 1.73322C14.4432 1.61811 15.059 1.52573 15.5587 1.49425ZM7.99999 2.5846L4.95638 3.04115C4.37259 3.12871 3.89962 3.19965 3.51735 3.28715C3.12217 3.3776 2.77879 3.49494 2.46596 3.69788C1.96554 4.0225 1.56849 4.48356 1.32169 5.02659C1.1674 5.36607 1.1023 5.72306 1.07147 6.12728C1.04165 6.5183 1.04165 6.99656 1.04166 7.58687V9.24993H7.99999V2.5846ZM1.04166 10.7499V12.413C1.04165 13.0033 1.04165 13.4816 1.07147 13.8726C1.1023 14.2768 1.1674 14.6338 1.32169 14.9733C1.56849 15.5163 1.96554 15.9774 2.46596 16.302C2.7788 16.5049 3.12217 16.6223 3.51735 16.7127C3.89959 16.8002 4.37252 16.8711 4.95624 16.9587L4.95631 16.9587L7.99999 17.4153V10.7499H1.04166ZM9.49999 17.6403L13.6758 18.2666C14.4431 18.3817 15.059 18.4741 15.5587 18.5056C16.0707 18.5379 16.5259 18.512 16.9547 18.3472C17.6302 18.0875 18.1946 17.6014 18.5516 16.9719C18.7782 16.5723 18.8713 16.126 18.9153 15.6149C18.9583 15.1161 18.9583 14.4934 18.9583 13.7175V13.7174V10.7499H9.49999V17.6403Z" fill="white"/>
</svg>
