<svg width="20" height="20" viewBox="0 0 20 20" fill="none" xmlns="http://www.w3.org/2000/svg">
<path fill-rule="evenodd" clip-rule="evenodd" d="M7.11659 0.233053C6.78522 -0.0154751 6.31512 0.0516823 6.06659 0.383053C5.81806 0.714424 5.88522 1.18453 6.21659 1.43305L6.66992 1.77305L6.79458 1.86661C7.23931 2.20048 7.61664 2.48377 7.96916 2.70808C6.07473 2.70911 5.08196 2.72678 4.28034 3.02848C2.93277 3.53568 1.86926 4.59919 1.36207 5.94676C1.0416 6.79823 1.0416 7.86538 1.0416 9.99968C1.0416 12.134 1.0416 13.2011 1.36207 14.0526C1.86926 15.4002 2.93277 16.4637 4.28035 16.9709C4.64173 17.1069 5.04196 17.1852 5.54614 17.2302L5.16244 17.9976C4.9772 18.3681 5.12737 18.8186 5.49785 19.0039C5.86834 19.1891 6.31884 19.0389 6.50408 18.6685L7.19385 17.2889C7.53687 17.2913 7.91453 17.2913 8.33326 17.2913H11.6666C12.0853 17.2913 12.463 17.2913 12.806 17.2889L13.4958 18.6685C13.681 19.0389 14.1315 19.1891 14.502 19.0039C14.8725 18.8186 15.0227 18.3681 14.8374 17.9976L14.4537 17.2302C14.9579 17.1852 15.3581 17.1069 15.7195 16.9709C17.0671 16.4637 18.1306 15.4002 18.6378 14.0526C18.9583 13.2011 18.9583 12.134 18.9583 9.99968C18.9583 7.86538 18.9583 6.79823 18.6378 5.94676C18.1306 4.59919 17.0671 3.53568 15.7195 3.02848C14.9179 2.72678 13.9251 2.70911 12.0307 2.70808C12.3832 2.48377 12.7605 2.20048 13.2053 1.86661L13.3299 1.77305L13.7833 1.43305C14.1146 1.18452 14.1818 0.714423 13.9333 0.383052C13.6847 0.051681 13.2146 -0.0154762 12.8833 0.233052L12.4299 0.573051C11.3438 1.38768 10.9636 1.65603 10.5727 1.75893C10.1972 1.85776 9.8026 1.85776 9.42715 1.75893C9.03628 1.65604 8.6561 1.38768 7.56992 0.573052L7.11659 0.233053ZM11.2499 13.7497C11.2499 14.44 10.6903 14.9997 9.99993 14.9997C9.30957 14.9997 8.74993 14.44 8.74993 13.7497C8.74993 13.0593 9.30957 12.4997 9.99993 12.4997C10.6903 12.4997 11.2499 13.0593 11.2499 13.7497Z" fill="white"/>
</svg>
