<svg width="20" height="20" viewBox="0 0 20 20" fill="none" xmlns="http://www.w3.org/2000/svg">
<path fill-rule="evenodd" clip-rule="evenodd" d="M4.14138 0.808058C4.38546 0.563981 4.78119 0.563981 5.02527 0.808058L6.88933 2.67212C7.812 2.16406 8.87224 1.875 9.99999 1.875C10.906 1.875 11.7685 2.06157 12.551 2.39839L14.1414 0.808058C14.3855 0.563981 14.7812 0.563981 15.0253 0.808058C15.2693 1.05214 15.2693 1.44786 15.0253 1.69194L13.687 3.03019C15.3621 4.197 16.4583 6.13715 16.4583 8.33333V8.54167H3.54166V8.33333C3.54166 6.35064 4.4351 4.57661 5.84135 3.39191L4.14138 1.69194C3.8973 1.44786 3.8973 1.05214 4.14138 0.808058ZM6.87499 5.83333C6.87499 5.25804 7.34136 4.79167 7.91666 4.79167C8.49195 4.79167 8.95832 5.25804 8.95832 5.83333C8.95832 6.40863 8.49195 6.875 7.91666 6.875C7.34136 6.875 6.87499 6.40863 6.87499 5.83333ZM11.0417 5.83333C11.0417 5.25804 11.508 4.79167 12.0833 4.79167C12.6586 4.79167 13.125 5.25804 13.125 5.83333C13.125 6.40863 12.6586 6.875 12.0833 6.875C11.508 6.875 11.0417 6.40863 11.0417 5.83333Z" fill="white"/>
<path d="M3.54166 9.79167L3.54166 13.192C3.54165 13.6372 3.54164 14.0087 3.56644 14.3122C3.5923 14.6288 3.64823 14.926 3.79143 15.2071C4.01114 15.6383 4.36172 15.9888 4.79293 16.2086C5.07398 16.3518 5.37119 16.4077 5.68776 16.4336C5.99129 16.4584 6.36282 16.4583 6.80795 16.4583H6.87499V18.3333C6.87499 18.6785 7.15481 18.9583 7.49999 18.9583C7.84517 18.9583 8.12499 18.6785 8.12499 18.3333V16.4583H11.875V18.3333C11.875 18.6785 12.1548 18.9583 12.5 18.9583C12.8452 18.9583 13.125 18.6785 13.125 18.3333V16.4583H13.192C13.6372 16.4583 14.0087 16.4584 14.3122 16.4336C14.6288 16.4077 14.926 16.3518 15.2071 16.2086C15.6383 15.9888 15.9888 15.6383 16.2085 15.2071C16.3518 14.926 16.4077 14.6288 16.4335 14.3122C16.4583 14.0087 16.4583 13.6372 16.4583 13.192V9.79167H3.54166Z" fill="white"/>
<path d="M1.66666 7.70833C2.01183 7.70833 2.29166 7.98816 2.29166 8.33333V13.3333C2.29166 13.6785 2.01183 13.9583 1.66666 13.9583C1.32148 13.9583 1.04166 13.6785 1.04166 13.3333V8.33333C1.04166 7.98816 1.32148 7.70833 1.66666 7.70833Z" fill="white"/>
<path d="M18.9583 8.33333C18.9583 7.98816 18.6785 7.70833 18.3333 7.70833C17.9881 7.70833 17.7083 7.98816 17.7083 8.33333V13.3333C17.7083 13.6785 17.9881 13.9583 18.3333 13.9583C18.6785 13.9583 18.9583 13.6785 18.9583 13.3333V8.33333Z" fill="white"/>
</svg>
