<svg width="20" height="20" viewBox="0 0 20 20" fill="none" xmlns="http://www.w3.org/2000/svg">
<path d="M13.1215 0.833254C13.1215 0.659551 13.0492 0.493683 12.922 0.375434C12.7947 0.257184 12.624 0.197222 12.4508 0.209928C11.4525 0.283149 10.3252 0.814087 9.65581 1.47601C8.9168 2.19932 8.46339 3.15058 8.55278 4.21274C8.57868 4.52039 8.82533 4.76304 9.13337 4.78389C10.2786 4.86143 11.2947 4.35057 12.0932 3.54239L12.0998 3.53564C12.6579 2.95341 12.9221 2.36942 13.0391 1.86437C13.1368 1.44295 13.1273 1.07646 13.1228 0.901999C13.1221 0.873934 13.1215 0.850805 13.1215 0.833254Z" fill="white"/>
<path d="M12.4785 5.21947C11.7102 5.15774 10.9461 5.36375 10.3654 5.55234C10.2171 5.60053 10.0761 5.64921 9.94799 5.69375L9.90136 5.70997C9.79025 5.74862 9.69153 5.78297 9.60046 5.81298C9.49646 5.84726 9.41501 5.87166 9.35113 5.88719C9.30231 5.89907 9.278 5.90214 9.27183 5.90292C9.2709 5.90304 9.27038 5.9031 9.27025 5.90314C9.23523 5.90233 9.13786 5.8868 8.9424 5.82794C8.80967 5.78797 8.6682 5.73995 8.50727 5.68533C8.43661 5.66135 8.36216 5.63608 8.28309 5.60967C7.80321 5.4494 7.17179 5.25179 6.57801 5.25179L6.56723 5.25188C5.42774 5.27155 4.25172 5.70382 3.35735 6.57842C2.45462 7.4612 1.875 8.75902 1.875 10.4365C1.875 11.3959 2.02801 12.3949 2.40961 13.4284C2.65805 14.1115 3.20742 15.2533 3.92485 16.228C4.28422 16.7162 4.70367 17.1872 5.1698 17.5366C5.62996 17.8815 6.18598 18.1447 6.80311 18.1238C7.32872 18.1211 7.78553 17.9499 8.15173 17.8126C8.18487 17.8002 8.21729 17.7881 8.24893 17.7764C8.65267 17.6269 9.01755 17.5067 9.48582 17.5067C9.93112 17.5067 10.2651 17.6234 10.6654 17.7748L10.7248 17.7974C11.1078 17.9429 11.5839 18.1238 12.1809 18.1238C12.7881 18.1238 13.3333 17.8782 13.7918 17.5456C14.2502 17.213 14.6558 16.7698 15 16.3084C15.6866 15.3883 16.1944 14.3079 16.4259 13.6179C16.5273 13.3154 16.3847 12.9851 16.095 12.8515C14.1994 11.9775 14.2558 10.3772 14.2596 10.2702L14.2598 10.265C14.2598 9.73567 14.3838 9.30314 14.6139 8.93117C14.8472 8.55417 15.2102 8.20635 15.7353 7.88329C15.8837 7.79202 15.9872 7.64297 16.021 7.47209C16.0547 7.30121 16.0156 7.12399 15.9131 6.98316C15.1085 5.8777 13.9286 5.33326 12.4785 5.21947Z" fill="white"/>
</svg>
